<?xml version="1.0" encoding="utf-8"?>
<!-- Generator: Adobe Illustrator 27.6.1, SVG Export Plug-In . SVG Version: 6.00 Build 0)  -->
<svg version="1.1" id="レイヤー_1" xmlns="http://www.w3.org/2000/svg" xmlns:xlink="http://www.w3.org/1999/xlink" x="0px"
	 y="0px" viewBox="0 0 122.8 26.5" style="enable-background:new 0 0 122.8 26.5;" xml:space="preserve">
<style type="text/css">
	.st0{fill:#009944;}
	.st1{fill:#00A0E9;}
</style>
<g>
	<path class="st0" d="M7.8,7.3c0,0,0.1,0,0.1,0c0.5,0.1,1.2-0.2,1.9-0.2c0.6,0,1.1,0,1.6,0c0.9-0.1,1.7-0.2,2.3,0
		c0.4,0.1,1.3,0,1.4,0.2c1.1-0.2,1.2,0.4,1.3-0.1L16.6,7l0,0.4l0.4,0c0.2-0.1-0.2-0.3,0.4-0.4l0.7,0l0.3-0.2
		c0.4,0.1,0.3,0.4,1.2,0.4l0.2-0.1l0.1,0.1c0.5-0.1,0.4-0.3,0.6-0.4c-0.4,0.2,0.6,0.3,0.5,0.5c0.5-0.1,0.2,0.1,0.7,0l0.7-0.2
		c0.4,0-0.6,0.3,0.1,0.4l0.6-0.2c0,0.1,0,0.1,0.3,0.1c0.4,0,0.2-0.1,0.5-0.2c-0.2,0.2,1.1,0.2,0.7,0.4l0.5-0.1l0,0l0.3-0.1
		c0.2,0.2-0.3,0.4,0.1,0.6c0.4-0.1,1-0.2,0.9-0.3c-0.1,0,0.2-0.1,0.3-0.1l0,0.3c0.7-0.1,0.7-0.3,1-0.5c0.5,0-0.3,0.3,0.8,0.2
		c0.1-0.1,0.1-0.1,0.4-0.2c0.3,0.1,0.4,0.1,0.4,0.2c0.4,0,0.7-0.1,1.2-0.1l0,0c0.4,0,0.4-0.1,0.8-0.2c0.6-0.1,1.1-0.2,1.7-0.3l0,0
		c1.1-0.2,1.7-0.4,2.4-0.7c0.3,0.1,0.2-0.1,0.5,0c1-0.3,1.3-0.7,1.8-1c0.9-0.3,0.8-0.6,1.1-0.9l0.1,0c0.1,0,0.3,0,0.3,0l0.2-0.2
		C39.9,4,39.6,3.9,40,3.7c0.1-0.3,0-0.6-0.9-0.8l1.1-0.5c0.1-0.1,0.4-0.1,0.8-0.1l0.8-0.4l0.5,0c-0.1,0-0.3,0-0.3,0
		c0.6-0.1,0.5-0.2,0.9-0.3l-0.3,0c0-0.1,0.4-0.1,0.4-0.1c-0.1,0-0.2,0-0.3-0.1c0.1-0.1,0.6-0.1,0.8-0.1c0.6,0,0,0.1,0.5,0.1
		c0.1,0,0.5,0,0.5-0.1c0-0.1-0.4-0.1-0.6-0.1l0.2,0c0,0-0.2,0-0.2,0l0,0c-0.1,0-0.2,0-0.4,0c-0.3,0-0.4,0-0.7,0
		C43,1,44.3,1.1,44.9,1C45,1,45.2,1,45.3,1c0-0.1,0.6-0.1,0.7-0.1c0.1-0.1,0.5-0.1,0.2-0.2l-0.5,0.1c-0.5,0.1-0.9,0-1.3,0
		c-0.5,0.1-1.1,0.1-1.5,0.2l0.3,0.1c-0.1,0.1-0.3,0.1-0.5,0.1c-0.2-0.1,0.2-0.2-0.2-0.2l-0.8,0.2c-0.5,0-0.3-0.1-0.5-0.1
		c-0.4-0.1-0.8-0.2-1-0.4c0.1,0,0.3,0,0.4-0.1l-1,0c0,0,0.1-0.1-0.1-0.1c-0.4,0-0.5-0.1-0.9,0c-0.3,0-0.5,0-0.6-0.1
		c0.3,0,0.5,0,0.7,0l0.1,0c-2,0-3.8-0.1-5.9-0.1c-1.1,0-2-0.1-3-0.1C29.7,0,29.4,0,29,0c-0.6,0.1-1.2,0.1-1.7,0.1
		c-0.2,0.1-0.9,0-1.2,0.1c-0.4,0-0.1-0.1-0.4-0.2c-0.2,0-0.8,0-0.6,0.1c-0.3,0.1-0.7,0.1-1,0.1c-0.1,0,0,0.1-0.3,0.1
		c-0.1,0,0,0,0-0.1c-0.5,0-0.5-0.1-1.1-0.1c0,0-0.3,0-0.2-0.1C22,0,21,0.2,20.3,0.2c-0.7,0-1.4,0.1-2.1,0.1c-0.3,0-0.6,0-0.8,0.1
		c-0.5,0-1.1,0.1-1.7,0.1c-0.3,0-1.1-0.1-1.4-0.1c-1.2,0-2,0-3.7,0L7.8,7.3"/>
	<path class="st0" d="M0,26.5c0.5,0,0.6,0,1,0c0.4-0.1,0.6,0,0.9,0c1.4,0,3-0.1,4.7-0.2c-0.4,0-0.7,0-0.9,0c0.3-0.1,0.6,0,1-0.1
		c1.3-0.2,2.4,0,3.6-0.3l1.9-0.1c-0.6,0-1.4,0-2.1,0c1.3-0.2,2.9-0.1,4.2-0.2c-2,0.1-3.9,0.1-5.6,0.1c-0.1,0,0.4,0,0.2-0.1
		c0.6,0,1.5,0,2.3-0.1c-0.4,0-0.8,0-1.1,0c0.7,0,1.6-0.1,2.3,0c-0.1,0-0.7,0-0.9,0l1.3-0.1l-0.1,0c0.9-0.1,1.8-0.1,2.5-0.1
		c-0.5,0-1.1,0-1.4,0c0.7-0.1,1.5-0.1,2.2-0.1l-0.1,0l0.4-0.1c-0.1,0-0.2,0-0.2,0c0.6-0.1,1.2,0,1.8-0.1l2.4-0.1
		c0.1-0.1-0.5-0.1-0.8-0.1c0.2,0,0.5,0,0.7,0c-0.1,0-0.6,0-0.5,0l-0.8,0c-1.7-0.2-3.2-0.5-4.6-0.7c0,0,0.3,0,0.4-0.1
		c1.7,0.1,2.4,0.4,4.2,0.4c0.5,0.2,1.8,0.2,2.6,0.2l1.2-0.1c-0.9,0-1.8,0.1-2.2,0c-2.2-0.3-4.2-0.7-6.5-1l0.1,0
		c3.9,0.2,6.3,0.8,9.7,1.1l0.3,0c-1.1,0-1.8-0.2-2.7-0.3c-2.2-0.3-4.7-0.6-6.8-1l0,0l0.2,0l-0.1,0c0.5-0.1,0.6,0,1.1,0
		c0.3,0.1,1,0,1.4,0.1l0.5,0c-0.7-0.1-1.6-0.2-2.4-0.2c0.2-0.1,0.6-0.1,0.9-0.1c0.2-0.1,0.9-0.1,1.3-0.2c0.9-0.1,1.9-0.3,2.9-0.4
		c0.2-0.2,2-0.3,1.8-0.4c0.1-0.1,1.6-0.3,1.1-0.4c0.5-0.1,1.4-0.2,2.1-0.3l0,0c-0.3,0.1-0.4,0-0.7,0c0.5-0.1,0.5-0.2,0.2-0.3
		c-0.1,0-0.4,0-0.6-0.1c0.3,0,0.2-0.1,0.4-0.1c-0.5,0,0.4-0.2-0.2-0.2c0.3-0.2-0.6-0.1-1-0.2c-0.8,0-1-0.1-1.4-0.1
		c0.2,0-0.2-0.1,0.4-0.1c0.1,0,0.2,0,0.3-0.1c-0.4,0-1.3,0-1.3-0.1l0.9-0.1c-0.3,0-0.8,0-0.8-0.1c0.3-0.1,0.6-0.1,1.1-0.2
		c0,0-0.6,0-0.6,0c0.1,0,0-0.1,0.3-0.1l0.3,0c0,0,0.1,0,0,0c0.3-0.1,0.4,0,0.7,0c0,0.1,0.5,0.1,0.8,0.1c0.6-0.2,1.3,0,1.7-0.2
		c0.5-0.2-1.3-0.2,0.3-0.4c0.3,0,0.7-0.1,1-0.1c0.5-0.1,0.1-0.1,0.2-0.1l-0.1,0c0.6-0.1,1.5-0.2,2.1-0.3c0-0.1,0.6-0.1,0.9-0.1
		c0.2,0,0.5,0,0.7,0c0.5,0,0.5,0.2,1.3,0.1c0.4,0,0.5-0.1,0.8-0.1c0.5-0.1-0.9,0-0.3-0.2c-0.2,0,0-0.1-0.3-0.1
		c-0.5,0-0.3-0.1-0.7-0.1c-0.3,0-0.4,0-0.6,0l0.4-0.2c-0.5,0-1,0-1.2,0c-0.1,0-0.2,0,0-0.1c-0.5,0-1-0.1-1-0.1
		c-0.5,0,0.1-0.1-0.1-0.1c-0.4,0-1,0-1,0c-0.2,0,0.6-0.1,0.8-0.2c-0.8,0-1.7,0.1-2.7,0.1L24.5,17L24,17L23.9,17c-1,0-2.2,0-3.3,0
		c-3.9,0.1-7.2,0.1-11.2,0.3c-1.9,0.1-3.9,0.1-6,0.2L0,26.5"/>
	<path class="st1" d="M11.4,26.2c-0.6,0-1.2,0-1.8,0.1C10.2,26.3,10.8,26.2,11.4,26.2"/>
	<path class="st0" d="M4.1,16.4c0.1,0,0.1,0,0.2,0c1.2,0,2.3-0.2,3.5-0.2c0.1,0.4-1.3,0.5-2.5,0.7c0.4,0.1,1.1,0,1.6,0
		c1.5-0.1,2.7-0.4,2.8-0.7c1.6,0,0.9-0.5,2.5-0.4l0,0.1c-0.5,0.1-0.2,0.3-1.2,0.3c0.4,0.2-1,0.1-0.6,0.2c1-0.1,1.6-0.3,2.1-0.5
		l5.5-0.3c1.3,0.3,2.9-0.1,3.9,0l0,0c0.9-0.1,2.1-0.2,2.9-0.2l-0.2-0.2c-2.1-0.2,1-0.4,0.1-0.6c0.5-0.2,1.3-0.2,1.9-0.4
		c0.7,0-0.1,0.2,0.3,0.2c2.2,0.1,1.9-0.3,2.4-0.6l-0.5,0l-0.1,0.1c0,0,0,0,0,0c0,0-0.1-0.1,0-0.1c1.8-0.2,1.4-0.7,2.9-0.8
		c1-0.5,1.7-1.1,2.5-1.6c1.4,0,0.5-0.3,1.2-0.4l0.1,0l0-0.1l-0.2,0c-0.2,0-0.1-0.1-0.2-0.1c1-0.3,0.2-0.7,1.8-0.9
		c-0.4-0.1-0.3-0.1-0.1-0.2l-1.9,0.5c-0.3-0.1,0.4-0.2,0.6-0.3c-0.2,0-0.3,0.1-0.5,0.1c-0.1-0.1,0.5-0.3,0.7-0.4
		c-0.4,0.1-0.7,0.3-1.2,0.3c0.4-0.1-0.4-0.1-0.2-0.2l-1,0.2c0-0.1,0.1-0.2,0.1-0.3c0-0.1-0.1-0.2-0.4-0.2c-0.3,0.1-0.3,0.1-0.4,0.2
		c-1.1,0.1-0.3-0.2-0.8-0.2c-0.3,0.1-0.4,0.3-1,0.4l0-0.3c-0.1,0-0.4,0.1-0.3,0.1c0,0.2-0.5,0.2-0.9,0.3c-0.4-0.2,0.1-0.3-0.1-0.5
		l-0.3,0.1l0,0l-0.5,0.1c0.3-0.2-1-0.2-0.7-0.4c-0.3,0.1-0.1,0.2-0.5,0.2c-0.3,0-0.3,0-0.3-0.1l-0.6,0.2c-0.7-0.1,0.3-0.3-0.1-0.4
		L25.6,9c-0.5,0-0.2-0.1-0.7,0c0.1-0.2-0.8-0.2-0.6-0.4c-0.1,0.1-0.1,0.2-0.6,0.3l-0.1-0.1l-0.2,0.1c-0.9,0-0.8-0.2-1.2-0.4L22,8.7
		l-0.7,0C20.7,8.7,21,8.8,20.9,9l-0.4,0l0-0.4l-0.3,0.1c0,0.4-0.2-0.1-1.3,0c-0.1-0.2-0.9-0.3-1.3-0.4c-0.6-0.2-1.4-0.1-2.3-0.1
		c-0.6,0-1.1,0.1-1.7,0c-0.6,0.1-0.3,0.1-0.4,0.2c-0.9,0-0.5,0.2-1.3,0.2c0,0.1,0,0.2,0.6,0.3c-0.3,0-0.4,0-0.7,0l-0.5-0.3
		c-0.2,0-0.4,0.1-0.6,0c-0.1-0.1-0.3-0.1-0.8-0.2c-1.3,0-1.2,0.3-2.4,0.3c-0.1,0-0.3,0-0.4,0L4.1,16.4"/>
	<path d="M38.3,12.2c0.2,0.4,0.4,0.7,0.9,0.7c0.5,0,1-0.4,1.1-0.9c0.2-1.2-1.8-0.7-1.6-2.1c0.2-0.8,0.9-1.2,1.6-1.2
		c0.3,0,0.6,0.1,0.8,0.3c-0.1,0.2-0.2,0.3-0.3,0.5h-0.1c-0.1-0.3-0.3-0.5-0.7-0.5c-0.4,0-0.9,0.3-0.9,0.7c-0.2,1.2,1.9,0.7,1.6,2
		c-0.2,0.9-1,1.4-1.8,1.4c-0.3,0-0.8-0.1-1-0.4C38.1,12.6,38.1,12.4,38.3,12.2L38.3,12.2"/>
	<path d="M42.1,11.1c0,0.1-0.1,0.2,0,0.2c0.1,0.1,0.5-0.3,0.6-0.4l0.5-0.4l0.6-0.5c0.1,0,0.2,0,0.2,0c0.1,0,0.2,0,0.3,0l0,0
		c-0.3,0.2-0.9,0.7-1.6,1.2c0.4,0.5,0.8,1.2,1.1,1.7l0,0c-0.1,0-0.2,0-0.3,0c-0.1,0-0.2,0-0.3,0c-0.2-0.4-0.6-1-0.9-1.4
		c-0.1-0.2-0.2-0.1-0.3,0.1l-0.3,1.3c-0.1,0-0.2,0-0.2,0c-0.1,0-0.2,0-0.3,0l0.9-4.7c0.1,0,0.2,0,0.2,0c0.1,0,0.2,0,0.3,0L42.1,11.1
		"/>
	<path d="M45.9,9c0-0.2-0.1-0.3-0.3-0.3c-0.2,0-0.3,0.1-0.4,0.3c0,0.2,0.1,0.3,0.3,0.3C45.7,9.3,45.9,9.1,45.9,9 M45.6,10
		c-0.1,0-0.2,0-0.3,0c-0.1,0-0.2,0-0.2,0l-0.6,3c0.1,0,0.2,0,0.3,0c0.1,0,0.2,0,0.2,0L45.6,10z"/>
	<path d="M47.2,8.3c0.1,0,0.2,0,0.2,0c0.1,0,0.2,0,0.3,0l-0.9,4.7c-0.1,0-0.2,0-0.2,0c-0.1,0-0.2,0-0.3,0L47.2,8.3"/>
	<path d="M49,8.3c0.1,0,0.2,0,0.2,0c0.1,0,0.2,0,0.3,0l-0.9,4.7c-0.1,0-0.2,0-0.2,0c-0.1,0-0.2,0-0.3,0L49,8.3"/>
	<path d="M53.2,12.4c0,0-0.2,0.2-0.2,0.2c-0.1,0.1-0.4,0.2-0.6,0.2c-0.4,0-0.6-0.2-0.5-0.6c0.1-0.6,0.8-0.6,1.2-0.7l0.2,0L53.2,12.4
		 M53.9,11.1c0.1-0.7-0.2-1.1-0.8-1.1c-0.4,0-0.7,0.1-1.1,0.3L52,10.7H52c0.1-0.1,0.4-0.4,0.8-0.4c0.5,0,0.7,0.3,0.6,0.7
		c-0.1,0.3-0.2,0.3-0.8,0.4c-0.6,0.1-1.2,0.2-1.3,0.9c-0.1,0.5,0.2,0.8,0.7,0.8c0.4,0,0.7-0.1,1-0.4l0.1-0.1c0,0.4,0.2,0.4,0.6,0.4
		c0.1,0,0.2,0,0.2-0.1l0-0.1c-0.4,0.1-0.3,0-0.3-0.3L53.9,11.1z"/>
	<path d="M55.2,10c0.1,0,0.2,0,0.2,0c0.1,0,0.2,0,0.3,0l-0.1,0.6c0.3-0.4,0.7-0.6,1.1-0.6c0.7,0,0.9,0.4,0.8,1.2l-0.4,1.8
		c-0.1,0-0.2,0-0.2,0c-0.1,0-0.2,0-0.3,0l0.3-1.7c0.1-0.6,0.1-1-0.5-1c-0.7,0-0.9,0.5-1.1,1.3l-0.3,1.5c-0.1,0-0.2,0-0.2,0
		c-0.1,0-0.2,0-0.3,0L55.2,10"/>
	<path d="M60.5,11.5c-0.1,0.6-0.5,1.4-1.2,1.4c-0.7,0-0.7-0.7-0.6-1.2c0.1-0.6,0.4-1.4,1.2-1.4C60.5,10.3,60.6,10.9,60.5,11.5
		 M61.6,8.3c-0.1,0-0.2,0-0.3,0c-0.1,0-0.2,0-0.2,0l-0.4,2.3c-0.1-0.4-0.4-0.6-0.9-0.6c-0.8,0-1.5,0.7-1.7,1.6c-0.2,1,0.3,1.5,1,1.5
		c0.5,0,0.9-0.2,1.2-0.7l-0.1,0.6c0.1,0,0.2,0,0.3,0c0.1,0,0.2,0,0.2,0L61.6,8.3z"/>
	<path d="M67.7,10.9c-0.1,0.5-0.7,2.1-2.2,2.1c-0.9,0-1.6-0.6-1.3-1.9c0.2-1.1,0.9-2.1,2.2-2.1c0.5,0,1,0.2,1.2,0.6
		C67.8,9.9,67.8,10.3,67.7,10.9 M66.3,8.6c-1.3,0-2.5,0.9-2.8,2.2c-0.3,1.4,0.6,2.2,2,2.2c0,0,0.1,0,0.2,0c0.4,0.4,1.1,1.1,1.2,1.2
		c0.2-0.1,0.4-0.2,0.5-0.3c-0.4-0.3-0.9-0.8-1.2-1.1c0.9-0.3,1.8-1,2.1-2.2C68.5,9.4,67.6,8.6,66.3,8.6z"/>
	<path d="M71.1,13.1c-0.1,0-0.2,0-0.2,0c-0.1,0-0.2,0-0.3,0l0.1-0.5c-0.3,0.4-0.7,0.6-1.1,0.6c-0.7,0-1-0.4-0.8-1.2l0.4-1.9
		c0.1,0,0.2,0,0.2,0c0.1,0,0.2,0,0.3,0l-0.3,1.7c-0.1,0.7,0,1.1,0.6,1.1c0.6,0,0.9-0.6,1-1l0.3-1.7c0.1,0,0.2,0,0.2,0
		c0.1,0,0.2,0,0.3,0L71.1,13.1"/>
	<path d="M73.8,12.4c0,0-0.2,0.2-0.2,0.2c-0.1,0.1-0.4,0.2-0.6,0.2c-0.4,0-0.6-0.2-0.5-0.6c0.1-0.6,0.8-0.6,1.2-0.7l0.2,0L73.8,12.4
		 M74.6,11.1c0.1-0.7-0.2-1.1-0.8-1.1c-0.4,0-0.7,0.1-1.1,0.3l-0.1,0.4h0.1c0.1-0.1,0.4-0.4,0.8-0.4c0.5,0,0.7,0.3,0.6,0.7
		c-0.1,0.3-0.2,0.3-0.8,0.4c-0.6,0.1-1.2,0.2-1.3,0.9c-0.1,0.5,0.2,0.8,0.7,0.8c0.4,0,0.7-0.1,1-0.4l0.1-0.1c0,0.4,0.2,0.4,0.6,0.4
		c0.1,0,0.2,0,0.2-0.1l0-0.1c-0.4,0.1-0.3,0-0.3-0.3L74.6,11.1z"/>
	<path d="M76.3,8.3c0.1,0,0.2,0,0.3,0c0.1,0,0.2,0,0.3,0l-0.9,4.7c-0.1,0-0.2,0-0.2,0c-0.1,0-0.2,0-0.3,0L76.3,8.3"/>
	<path d="M78.2,10c-0.1,0-0.2,0-0.3,0c-0.1,0-0.2,0-0.2,0l-0.6,3c0.1,0,0.2,0,0.3,0c0.1,0,0.2,0,0.3,0L78.2,10 M78.5,9
		c0-0.2-0.1-0.3-0.3-0.3c-0.2,0-0.3,0.1-0.4,0.3c0,0.2,0.1,0.3,0.3,0.3C78.3,9.3,78.5,9.1,78.5,9z"/>
	<path d="M80,9.2L79.8,10h0.7c0,0.1-0.1,0.2,0,0.2h-0.7l-0.3,1.6c-0.1,0.4-0.3,1,0.3,1c0.1,0,0.2,0,0.3,0l0,0.2
		c-0.2,0.1-0.4,0.1-0.6,0.1c-0.5,0-0.7-0.2-0.5-1l0.4-1.8h-0.4c0-0.1,0-0.2,0-0.2h0.4l0.1-0.6L80,9.2"/>
	<path d="M80.8,10c0.1,0,0.2,0,0.3,0c0.1,0,0.2,0,0.3,0c0.1,0.7,0.2,1.5,0.5,2.3c0.4-0.6,1-1.7,1.4-2.3c0.1,0,0.1,0,0.2,0
		c0.1,0,0.1,0,0.2,0c-1.1,1.7-2,3.1-2.9,4.6c-0.1,0-0.1,0-0.2,0c-0.1,0-0.1,0-0.2,0c0.5-0.8,0.9-1.3,1.2-1.6L80.8,10"/>
	<path d="M34.9,24.2c0.2,0.7,0.8,1.6,2.1,1.6c1.3,0,2.3-1,2.6-2.2c0.5-2.7-4.4-1.6-3.7-5.1c0.3-1.7,1.8-2.8,3.8-2.8
		c0.9,0,1.6,0.2,2.1,0.7c-0.2,0.3-0.4,0.7-0.6,1.3h-0.2c-0.1-0.6-0.4-1.4-1.5-1.4c-1.1,0-2.1,0.8-2.3,1.9c-0.5,2.8,4.4,1.6,3.7,4.9
		c-0.4,1.8-2,3.4-4.3,3.4c-1.2,0-1.9-0.4-2.3-0.8c0.3-0.5,0.4-0.8,0.5-1.3H34.9"/>
	<path d="M47.8,15.7c0.8,3.5,2,8.9,2.5,10.5c-0.3,0-0.5-0.1-0.8-0.1c-0.3,0-0.5,0-0.8,0.1c-0.1-1-0.5-2.7-0.8-4c-0.6,0-1.3,0-1.9,0
		c-0.6,0-1.2,0-1.8,0c-0.9,1.5-1.8,3.1-2.2,4c-0.2,0-0.4-0.1-0.5-0.1c-0.2,0-0.4,0-0.6,0.1c2.3-3.5,4.5-7,6.7-10.5H47.8 M46.9,17.7
		l-2.4,3.8c0.5,0,1.1,0,1.6,0c0.6,0,1.1,0,1.7,0L46.9,17.7z"/>
	<path d="M60,26.4c-1.8-2.7-3.9-5.5-5.9-8.3c-0.1,0.6-0.3,1.4-0.6,3c-0.2,1.3-0.8,4.4-0.8,5c-0.2,0-0.3-0.1-0.5-0.1
		c-0.2,0-0.4,0-0.6,0.1c0.3-0.7,1.2-4.5,1.6-6.5c0.4-1.9,0.6-3.3,0.7-4h0.2c1.9,2.6,4.5,6.2,6,8.1c0.5-2.7,1.1-5.6,1.4-7.9
		c0.2,0,0.3,0.1,0.5,0.1c0.2,0,0.3,0,0.5-0.1c-0.3,0.9-1,3.8-1.2,5c-0.3,1.5-0.9,4.8-1,5.5H60"/>
	<path d="M64.4,24.2c0.2,0.7,0.8,1.6,2.1,1.6c1.3,0,2.3-1,2.6-2.2c0.5-2.7-4.4-1.6-3.7-5.1c0.3-1.7,1.8-2.8,3.8-2.8
		c0.9,0,1.6,0.2,2.1,0.7c-0.2,0.3-0.4,0.7-0.6,1.3h-0.2c-0.1-0.6-0.4-1.4-1.5-1.4c-1.1,0-2.1,0.8-2.3,1.9c-0.5,2.8,4.4,1.6,3.7,4.9
		c-0.4,1.8-2,3.4-4.3,3.4c-1.2,0-1.9-0.4-2.3-0.8c0.3-0.5,0.4-0.8,0.5-1.3H64.4"/>
	<path d="M80.2,19.8c0.2-1.3,0.4-2.6,0.6-3.9c0.2,0,0.5,0.1,0.7,0.1c0.2,0,0.5,0,0.7-0.1c-0.3,1.3-0.6,2.6-0.9,3.9L81,22.3
		c-0.2,1.3-0.4,2.6-0.6,3.9c-0.2,0-0.5-0.1-0.7-0.1c-0.2,0-0.5,0-0.7,0.1c0.3-1.3,0.6-2.6,0.9-3.9L80,21c-1,0-2.1,0-3.1,0
		c-1,0-2.1,0-3.1,0l-0.3,1.3c-0.2,1.3-0.4,2.6-0.6,3.9c-0.2,0-0.5-0.1-0.7-0.1c-0.2,0-0.5,0-0.7,0.1c0.3-1.3,0.6-2.6,0.9-3.9
		l0.5-2.6c0.2-1.3,0.4-2.6,0.6-3.9c0.2,0,0.5,0.1,0.7,0.1c0.2,0,0.5,0,0.7-0.1c-0.3,1.3-0.6,2.6-0.9,3.9l-0.1,0.5c1,0,2.1,0,3.1,0
		c1,0,2.1,0,3.1,0L80.2,19.8"/>
	<path d="M84.1,19.8c0.3-1.3,0.4-2.6,0.6-3.9c0.2,0,0.5,0.1,0.7,0.1c0.2,0,0.5,0,0.7-0.1c-0.3,1.3-0.6,2.6-0.9,3.9l-0.5,2.6
		c-0.2,1.3-0.4,2.6-0.6,3.9c-0.2,0-0.5-0.1-0.7-0.1c-0.2,0-0.5,0-0.7,0.1c0.3-1.3,0.6-2.6,0.9-3.9L84.1,19.8"/>
	<path d="M95,26.4c-1.7-2.7-3.9-5.5-5.9-8.3c-0.1,0.6-0.3,1.4-0.6,3c-0.2,1.3-0.8,4.4-0.8,5c-0.2,0-0.3-0.1-0.5-0.1
		c-0.2,0-0.4,0-0.6,0.1c0.3-0.7,1.2-4.5,1.6-6.5c0.4-1.9,0.6-3.3,0.7-4h0.2c1.9,2.6,4.5,6.2,6,8.1c0.5-2.7,1.1-5.6,1.4-7.9
		c0.2,0,0.3,0.1,0.5,0.1c0.2,0,0.3,0,0.5-0.1c-0.3,0.9-1,3.8-1.2,5c-0.3,1.5-0.9,4.8-1,5.5H95"/>
	<path d="M99.5,24.2c0.2,0.7,0.8,1.6,2.1,1.6c1.3,0,2.3-1,2.6-2.2c0.5-2.7-4.4-1.6-3.7-5.1c0.3-1.7,1.8-2.8,3.8-2.8
		c0.9,0,1.6,0.2,2.1,0.7c-0.2,0.3-0.4,0.7-0.6,1.3h-0.2c-0.1-0.6-0.4-1.4-1.5-1.4c-1.1,0-2.1,0.8-2.3,1.9c-0.5,2.8,4.4,1.6,3.7,4.9
		c-0.4,1.8-2,3.4-4.3,3.4c-1.2,0-1.9-0.4-2.3-0.8c0.3-0.5,0.4-0.8,0.5-1.3H99.5"/>
	<path d="M107.4,15.9c0.3,0,0.5,0.1,0.8,0.1c0.3,0,0.6,0,0.8-0.1c0.5,1.7,1.1,3.4,1.8,5.2c1.2-1.4,2.7-3.5,3.8-5.2
		c0.2,0,0.4,0.1,0.6,0.1c0.2,0,0.4,0,0.6-0.1c-2.5,2.9-3.9,4.6-4.8,5.9c-0.3,1.5-0.6,3.5-0.7,4.4c-0.2,0-0.5-0.1-0.7-0.1
		c-0.2,0-0.5,0-0.7,0.1c0.3-1.1,0.6-2.6,0.9-4.2C109.5,20.9,107.9,16.8,107.4,15.9"/>
	<path d="M120.4,15.7c0.8,3.5,2,8.9,2.5,10.5c-0.3,0-0.5-0.1-0.8-0.1c-0.3,0-0.5,0-0.8,0.1c-0.1-1-0.5-2.7-0.8-4c-0.6,0-1.3,0-1.9,0
		c-0.6,0-1.2,0-1.8,0c-0.9,1.5-1.8,3.1-2.2,4c-0.2,0-0.4-0.1-0.5-0.1c-0.2,0-0.4,0-0.6,0.1c2.3-3.5,4.5-7,6.7-10.5H120.4
		 M119.5,17.7l-2.4,3.8c0.5,0,1.1,0,1.6,0c0.6,0,1.1,0,1.7,0L119.5,17.7z"/>
</g>
</svg>
